<?xml version="1.0" encoding="utf-8"?>
<!-- Generator: Adobe Illustrator 19.1.0, SVG Export Plug-In . SVG Version: 6.00 Build 0)  -->
<svg version="1.1" xmlns="http://www.w3.org/2000/svg" xmlns:xlink="http://www.w3.org/1999/xlink" x="0px" y="0px"
	 width="1367.7px" height="302.9px" viewBox="0 0 1367.7 302.9" enable-background="new 0 0 1367.7 302.9" xml:space="preserve">
<g id="Layer_1">
</g>
<g id="Layer_3">
</g>
<g id="Layer_2">
</g>
<g id="Layer_5">
</g>
<g id="Layer_6">
</g>
<g id="Layer_7">
</g>
<g id="Layer_9">
</g>
<g id="Layer_8">
</g>
<g id="Layer_4">
</g>
<g id="Layer_11">
	<g>
		<path fill="#AAAAAA" d="M1167.6,290.5h-16.7c-1.3,0-2.4-1.1-2.4-2.4s1.1-2.4,2.4-2.4h16.6c1.3,0,2.4,1.1,2.4,2.4
			S1168.9,290.5,1167.6,290.5z M1134.3,290.5h-16.6c-1.3,0-2.4-1.1-2.4-2.4s1.1-2.4,2.4-2.4h16.6c1.3,0,2.4,1.1,2.4,2.4
			S1135.6,290.5,1134.3,290.5z M1101,290.5h-16.6c-1.3,0-2.4-1.1-2.4-2.4s1.1-2.4,2.4-2.4h16.6c1.3,0,2.4,1.1,2.4,2.4
			S1102.4,290.5,1101,290.5z M1067.8,290.5h-16.6c-1.3,0-2.4-1.1-2.4-2.4s1.1-2.4,2.4-2.4h16.6c1.3,0,2.4,1.1,2.4,2.4
			S1069.1,290.5,1067.8,290.5z M1034.5,290.5h-16.6c-1.3,0-2.4-1.1-2.4-2.4s1.1-2.4,2.4-2.4h16.6c1.3,0,2.4,1.1,2.4,2.4
			S1035.9,290.5,1034.5,290.5z M1001.3,290.5h-16.6c-1.3,0-2.4-1.1-2.4-2.4s1.1-2.4,2.4-2.4h16.6c1.3,0,2.4,1.1,2.4,2.4
			S1002.6,290.5,1001.3,290.5z M968.1,290.5h-16.6c-1.3,0-2.4-1.1-2.4-2.4s1.1-2.4,2.4-2.4h16.6c1.3,0,2.4,1.1,2.4,2.4
			S969.4,290.5,968.1,290.5z M934.8,290.5h-16.6c-1.3,0-2.4-1.1-2.4-2.4s1.1-2.4,2.4-2.4h16.6c1.3,0,2.4,1.1,2.4,2.4
			S936.1,290.5,934.8,290.5z M901.6,290.5h-16.6c-1.3,0-2.4-1.1-2.4-2.4s1.1-2.4,2.4-2.4h16.6c1.3,0,2.4,1.1,2.4,2.4
			S902.9,290.5,901.6,290.5z M868.3,290.5h-16.6c-1.3,0-2.4-1.1-2.4-2.4s1.1-2.4,2.4-2.4h16.6c1.3,0,2.4,1.1,2.4,2.4
			S869.7,290.5,868.3,290.5z M835.1,290.5h-16.6c-1.3,0-2.4-1.1-2.4-2.4s1.1-2.4,2.4-2.4h16.6c1.3,0,2.4,1.1,2.4,2.4
			S836.4,290.5,835.1,290.5z M801.8,290.5h-16.6c-1.3,0-2.4-1.1-2.4-2.4s1.1-2.4,2.4-2.4h16.6c1.3,0,2.4,1.1,2.4,2.4
			S803.2,290.5,801.8,290.5z M768.6,290.5h-9.7c-2.6,0-5.1-0.4-7.5-1.1c-1.3-0.4-2-1.7-1.6-3s1.7-2,3-1.6c2,0.6,4,0.9,6.1,0.9h9.7
			c1.3,0,2.4,1.1,2.4,2.4S769.9,290.5,768.6,290.5z M1182.9,284.8c-0.7,0-1.3-0.3-1.8-0.8c-0.9-1-0.8-2.5,0.2-3.4
			c3.8-3.3,6.3-7.8,7.1-12.8c0.2-1.3,1.4-2.2,2.7-2c1.3,0.2,2.2,1.4,2,2.7c-0.9,6.1-4,11.7-8.7,15.7
			C1184,284.6,1183.4,284.8,1182.9,284.8z M739.1,279.6c-0.8,0-1.6-0.4-2-1.1c-2.7-4.2-4.1-9-4.1-14v-3.2c0-1.3,1.1-2.4,2.4-2.4
			s2.4,1.1,2.4,2.4v3.2c0,4,1.1,8,3.3,11.4c0.7,1.1,0.4,2.6-0.7,3.3C740,279.5,739.5,279.6,739.1,279.6z M1191,253.9
			c-1.3,0-2.4-1.1-2.4-2.4v-16.6c0-1.3,1.1-2.4,2.4-2.4s2.4,1.1,2.4,2.4v16.6C1193.4,252.9,1192.3,253.9,1191,253.9z M735.4,247.1
			c-1.3,0-2.4-1.1-2.4-2.4v-16.6c0-1.3,1.1-2.4,2.4-2.4s2.4,1.1,2.4,2.4v16.6C737.8,246,736.7,247.1,735.4,247.1z M1191,220.7
			c-1.3,0-2.4-1.1-2.4-2.4v-16.6c0-1.3,1.1-2.4,2.4-2.4s2.4,1.1,2.4,2.4v16.6C1193.4,219.6,1192.3,220.7,1191,220.7z M735.4,213.9
			c-1.3,0-2.4-1.1-2.4-2.4v-16.6c0-1.3,1.1-2.4,2.4-2.4s2.4,1.1,2.4,2.4v16.6C737.8,212.8,736.7,213.9,735.4,213.9z M1191,187.4
			c-1.3,0-2.4-1.1-2.4-2.4v-16.6c0-1.3,1.1-2.4,2.4-2.4s2.4,1.1,2.4,2.4V185C1193.4,186.4,1192.3,187.4,1191,187.4z M735.4,180.6
			c-1.3,0-2.4-1.1-2.4-2.4v-16.6c0-1.3,1.1-2.4,2.4-2.4s2.4,1.1,2.4,2.4v16.6C737.8,179.5,736.7,180.6,735.4,180.6z M1191,154.2
			c-1.3,0-2.4-1.1-2.4-2.4v-16.6c0-1.3,1.1-2.4,2.4-2.4s2.4,1.1,2.4,2.4v16.6C1193.4,153.1,1192.3,154.2,1191,154.2z M735.4,147.4
			c-1.3,0-2.4-1.1-2.4-2.4v-16.6c0-1.3,1.1-2.4,2.4-2.4s2.4,1.1,2.4,2.4V145C737.8,146.3,736.7,147.4,735.4,147.4z M1191,121
			c-1.3,0-2.4-1.1-2.4-2.4v-16.6c0-1.3,1.1-2.4,2.4-2.4s2.4,1.1,2.4,2.4v16.6C1193.4,119.9,1192.3,121,1191,121z M735.4,114.1
			c-1.3,0-2.4-1.1-2.4-2.4V95.1c0-1.3,1.1-2.4,2.4-2.4s2.4,1.1,2.4,2.4v16.6C737.8,113.1,736.7,114.1,735.4,114.1z M1191,87.7
			c-1.3,0-2.4-1.1-2.4-2.4V68.7c0-1.3,1.1-2.4,2.4-2.4s2.4,1.1,2.4,2.4v16.6C1193.4,86.6,1192.3,87.7,1191,87.7z M735.4,80.9
			c-1.3,0-2.4-1.1-2.4-2.4V61.9c0-1.3,1.1-2.4,2.4-2.4s2.4,1.1,2.4,2.4v16.6C737.8,79.8,736.7,80.9,735.4,80.9z M1191,54.5
			c-1.3,0-2.4-1.1-2.4-2.4V35.5c0-1.3,1.1-2.4,2.4-2.4s2.4,1.1,2.4,2.4v16.6C1193.4,53.4,1192.3,54.5,1191,54.5z M735.4,47.6
			c-1.3,0-2.4-1.1-2.4-2.4v-13c0-1.3,0.1-2.7,0.3-4c0.2-1.3,1.4-2.2,2.7-2c1.3,0.2,2.2,1.4,2,2.7c-0.2,1.1-0.2,2.2-0.2,3.2v13
			C737.8,46.6,736.7,47.6,735.4,47.6z M1187.3,22c-0.8,0-1.6-0.4-2-1.1c-2.7-4.2-6.9-7.4-11.7-8.8c-1.3-0.4-2-1.7-1.6-3
			c0.4-1.3,1.7-2,3-1.6c5.9,1.8,11,5.6,14.3,10.8c0.7,1.1,0.4,2.6-0.7,3.3C1188.2,21.8,1187.7,22,1187.3,22z M743.6,16.8
			c-0.7,0-1.3-0.3-1.8-0.8c-0.9-1-0.7-2.5,0.3-3.4c4.7-4,10.6-6.2,16.8-6.2c0,0,0,0,0,0c1.3,0,2.4,1.1,2.4,2.4
			c0,1.3-1.1,2.4-2.4,2.4c-5,0-9.9,1.8-13.7,5.1C744.7,16.6,744.1,16.8,743.6,16.8z M1157.8,11.2h-16.6c-1.3,0-2.4-1.1-2.4-2.4
			s1.1-2.4,2.4-2.4h16.6c1.3,0,2.4,1.1,2.4,2.4S1159.1,11.2,1157.8,11.2z M1124.5,11.2h-16.6c-1.3,0-2.4-1.1-2.4-2.4
			s1.1-2.4,2.4-2.4h16.6c1.3,0,2.4,1.1,2.4,2.4S1125.9,11.2,1124.5,11.2z M1091.3,11.2h-16.6c-1.3,0-2.4-1.1-2.4-2.4
			s1.1-2.4,2.4-2.4h16.6c1.3,0,2.4,1.1,2.4,2.4S1092.6,11.2,1091.3,11.2z M1058,11.2h-16.6c-1.3,0-2.4-1.1-2.4-2.4s1.1-2.4,2.4-2.4
			h16.6c1.3,0,2.4,1.1,2.4,2.4S1059.4,11.2,1058,11.2z M1024.8,11.2h-16.6c-1.3,0-2.4-1.1-2.4-2.4s1.1-2.4,2.4-2.4h16.6
			c1.3,0,2.4,1.1,2.4,2.4S1026.1,11.2,1024.8,11.2z M991.6,11.2h-16.6c-1.3,0-2.4-1.1-2.4-2.4s1.1-2.4,2.4-2.4h16.6
			c1.3,0,2.4,1.1,2.4,2.4S992.9,11.2,991.6,11.2z M958.3,11.2h-16.6c-1.3,0-2.4-1.1-2.4-2.4s1.1-2.4,2.4-2.4h16.6
			c1.3,0,2.4,1.1,2.4,2.4S959.6,11.2,958.3,11.2z M925.1,11.2h-16.6c-1.3,0-2.4-1.1-2.4-2.4s1.1-2.4,2.4-2.4h16.6
			c1.3,0,2.4,1.1,2.4,2.4S926.4,11.2,925.1,11.2z M891.8,11.2h-16.6c-1.3,0-2.4-1.1-2.4-2.4s1.1-2.4,2.4-2.4h16.6
			c1.3,0,2.4,1.1,2.4,2.4S893.1,11.2,891.8,11.2z M858.6,11.2H842c-1.3,0-2.4-1.1-2.4-2.4s1.1-2.4,2.4-2.4h16.6
			c1.3,0,2.4,1.1,2.4,2.4S859.9,11.2,858.6,11.2z M825.3,11.2h-16.6c-1.3,0-2.4-1.1-2.4-2.4s1.1-2.4,2.4-2.4h16.6
			c1.3,0,2.4,1.1,2.4,2.4S826.7,11.2,825.3,11.2z M792.1,11.2h-16.6c-1.3,0-2.4-1.1-2.4-2.4s1.1-2.4,2.4-2.4h16.6
			c1.3,0,2.4,1.1,2.4,2.4S793.4,11.2,792.1,11.2z"/>
	</g>
	<g>
		<path fill="#29ABCA" d="M747.1,79.4v-5.1c18.6-14.6,28.6-23.2,28.6-32.1c0-6.6-5.4-9.4-10.7-9.4c-6.2,0-11,2.6-14,6.5l-3.9-4.1
			C751,30,757.7,27,765,27c8.6,0,17.3,4.9,17.3,15.2c0,10.5-10.7,20.1-25,31.5h25.3v5.7H747.1z"/>
		<path fill="#29ABCA" d="M815.4,79.4V66.3h-24.5V61L813,27.8h8.8v32.9h7.3v5.6h-7.3v13.1H815.4z M815.4,33.8l-18.1,26.9h18.1V33.8z
			"/>
	</g>
	<g>
		<path fill="#78C043" d="M764.8,272.5v-43.1l-8.3,8.7l-3.9-3.9l12.9-13.3h5.6v51.6H764.8z"/>
		<path fill="#78C043" d="M781.4,272.5v-5.1c18.6-14.6,28.6-23.2,28.6-32.1c0-6.6-5.4-9.4-10.7-9.4c-6.2,0-11,2.6-14,6.5l-3.9-4.1
			c3.9-5.2,10.7-8.1,17.9-8.1c8.6,0,17.3,4.9,17.3,15.2c0,10.5-10.7,20.1-25,31.5h25.3v5.7H781.4z"/>
	</g>
	<g>
		<path fill="#B189C6" d="M1256.3,57.3c0-5.3,3.7-9.2,9.1-9.2c3.4,0,5.5,1.5,6.7,3.1l-2.5,2.3c-1-1.4-2.3-2.1-4-2.1
			c-3.2,0-5.3,2.4-5.3,5.8c0,3.4,2.1,5.8,5.3,5.8c1.7,0,3-0.7,4-2.1l2.5,2.3c-1.2,1.7-3.3,3.1-6.7,3.1
			C1260,66.6,1256.3,62.7,1256.3,57.3z"/>
		<path fill="#B189C6" d="M1287.3,66.1v-11c0-2.7-1.4-3.6-3.6-3.6c-1.9,0-3.6,1.2-4.5,2.4v12.2h-3.8V41.9h3.8V51
			c1.2-1.4,3.4-2.8,6.2-2.8c3.8,0,5.7,2,5.7,5.6v12.4H1287.3z"/>
		<path fill="#B189C6" d="M1306.7,66.1v-1.9c-1.3,1.5-3.3,2.3-5.7,2.3c-2.9,0-6.1-1.9-6.1-5.8c0-4,3.2-5.7,6.1-5.7
			c2.4,0,4.4,0.8,5.7,2.2v-2.6c0-2-1.7-3.3-4.1-3.3c-2,0-3.7,0.7-5.2,2.2l-1.6-2.6c2-1.9,4.6-2.8,7.4-2.8c3.9,0,7.3,1.6,7.3,6.3
			v11.6H1306.7z M1306.7,62.1v-2.6c-0.9-1.2-2.5-1.8-4.2-1.8c-2.1,0-3.7,1.2-3.7,3.2c0,1.9,1.6,3.1,3.7,3.1
			C1304.2,64,1305.9,63.3,1306.7,62.1z"/>
		<path fill="#B189C6" d="M1315.5,66.1V48.6h3.8v2.6c1.3-1.7,3.4-3,5.7-3V52c-0.3-0.1-0.7-0.1-1.2-0.1c-1.6,0-3.7,1.1-4.5,2.3v11.9
			H1315.5z"/>
		<path fill="#B189C6" d="M1327.8,70.6l1.8-2.8c1.4,1.6,3.2,2.2,5.6,2.2c2.5,0,5.2-1.2,5.2-4.8v-2.1c-1.3,1.7-3.3,2.9-5.6,2.9
			c-4.5,0-7.8-3.2-7.8-9c0-5.7,3.3-9,7.8-9c2.2,0,4.2,1,5.6,2.9v-2.4h3.8v16.6c0,6.3-4.7,8-9,8C1332.2,73.2,1330,72.6,1327.8,70.6z
			 M1340.4,60.4v-6.5c-0.8-1.3-2.7-2.4-4.5-2.4c-3,0-4.9,2.2-4.9,5.6c0,3.4,1.9,5.6,4.9,5.6C1337.6,62.8,1339.5,61.7,1340.4,60.4z"
			/>
		<path fill="#B189C6" d="M1348,57.3c0-5.1,3.7-9.2,8.9-9.2c5.3,0,8.6,4,8.6,9.5v0.9H1352c0.3,2.6,2.3,4.8,5.6,4.8
			c1.7,0,3.7-0.7,5-1.9l1.7,2.5c-1.7,1.7-4.3,2.5-7.1,2.5C1351.9,66.6,1348,62.9,1348,57.3z M1356.9,51.3c-3.3,0-4.8,2.5-4.9,4.6
			h9.9C1361.8,53.9,1360.4,51.3,1356.9,51.3z"/>
	</g>
	<g>
		<g>
			<path fill="#B189C6" d="M1243.3,58.7h-38c-1.1,0-2-0.9-2-2s0.9-2,2-2h38c1.1,0,2,0.9,2,2S1244.4,58.7,1243.3,58.7z"/>
		</g>
		<g>
			<g>
				<polygon fill="#B189C6" points="1208.3,46.8 1190.6,57 1208.3,67.3 				"/>
			</g>
		</g>
	</g>
	<g>
		<path fill="#B189C6" d="M1100.5,79.4v-5.1c18.6-14.6,28.6-23.2,28.6-32.1c0-6.6-5.4-9.4-10.7-9.4c-6.2,0-11,2.6-14,6.5l-3.9-4.1
			c3.9-5.2,10.7-8.1,17.9-8.1c8.6,0,17.3,4.9,17.3,15.2c0,10.5-10.7,20.1-25,31.5h25.3v5.7H1100.5z"/>
		<path fill="#B189C6" d="M1163.3,55.3v16.5h-4.4V55.3H1144v-4h14.8v-16h4.4v16h14.8v4H1163.3z"/>
	</g>
	<g>
		<g>
			<path fill="#333333" d="M957.1,224V108.5L909.4,224h-7.1l-47.5-115.4V224h-17.5V83.7h25l43.5,105.6l43.7-105.6h25V224H957.1z"/>
		</g>
		<g>
			<path fill="#333333" d="M996.6,250.1l8-11.8c8.4,10.1,18.5,13.9,33,13.9c16.8,0,32.6-8.2,32.6-30.5v-14.5
				c-7.4,10.3-19.8,18.1-34.1,18.1c-26.5,0-45.2-19.8-45.2-52.6c0-32.6,18.5-52.8,45.2-52.8c13.7,0,25.9,6.7,34.1,17.9v-15.4h15.8
				V221c0,33.6-23.6,44.2-48.4,44.2C1020.4,265.2,1008.6,261.8,996.6,250.1z M1070.2,194.8v-44.4c-5.5-8.8-17.7-16.4-30.3-16.4
				c-20.4,0-32.6,16.2-32.6,38.7c0,22.3,12.2,38.7,32.6,38.7C1052.5,211.4,1064.7,203.6,1070.2,194.8z"/>
		</g>
	</g>
	<g>
		<path fill="#DDDDDD" d="M663.3,296.7c-2.2,0-4-1.8-4-4v-279c0-2.2,1.8-4,4-4s4,1.8,4,4v279C667.3,294.9,665.5,296.7,663.3,296.7z"
			/>
	</g>
</g>
<g id="a9_x26_10_x5F_notexpanded" display="none">
	<g display="inline">
		
			<path fill="none" stroke="#AAAAAA" stroke-width="4.7966" stroke-linecap="round" stroke-linejoin="round" stroke-dasharray="16.622,16.622" d="
			M1167.5,288.1H758.9c-13,0-23.5-10.5-23.5-23.5V32.3c0-13,10.5-23.5,23.5-23.5h408.6c13,0,23.5,10.5,23.5,23.5v232.3
			C1191,277.6,1180.5,288.1,1167.5,288.1z"/>
	</g>
	
		<text transform="matrix(1 0 0 1 742.9218 79.3571)" display="inline" fill="#29ABCA" font-family="'ProximaNova-Regular'" font-size="77.3px">24</text>
	
		<text transform="matrix(1 0 0 1 751.0628 272.4929)" display="inline" fill="#78C043" font-family="'ProximaNova-Regular'" font-size="77.3px">12</text>
	<rect x="1242.9" y="41.9" display="inline" fill="none" width="135.9" height="34.4"/>
	
		<text transform="matrix(1 0 0 1 1254.9065 66.1296)" display="inline" fill="#B189C6" font-family="'ProximaNova-Semibold'" font-size="36.2864px">charge</text>
	<g display="inline">
		<g>
			
				<line fill="none" stroke="#B189C6" stroke-width="4" stroke-linecap="round" stroke-linejoin="round" x1="1243.3" y1="56.7" x2="1205.3" y2="56.7"/>
			<g>
				<polygon fill="#B189C6" points="1208.3,46.8 1190.6,57 1208.3,67.3 				"/>
			</g>
		</g>
	</g>
	
		<text transform="matrix(1 0 0 1 1096.3529 79.3573)" display="inline" fill="#B189C6" font-family="'ProximaNova-Regular'" font-size="77.3px">2+</text>
	<g display="inline">
		<path fill="#333333" d="M957.1,224V108.5L909.4,224h-7.1l-47.5-115.4V224h-17.5V83.7h25l43.5,105.6l43.7-105.6h25V224H957.1z"/>
		<path fill="#333333" d="M996.6,250.1l8-11.8c8.4,10.1,18.5,13.9,33,13.9c16.8,0,32.6-8.2,32.6-30.5v-14.5
			c-7.4,10.3-19.8,18.1-34.1,18.1c-26.5,0-45.2-19.8-45.2-52.6c0-32.6,18.5-52.8,45.2-52.8c13.7,0,25.9,6.7,34.1,17.9v-15.4h15.8
			V221c0,33.6-23.6,44.2-48.4,44.2C1020.4,265.2,1008.6,261.8,996.6,250.1z M1070.2,194.8v-44.4c-5.5-8.8-17.7-16.4-30.3-16.4
			c-20.4,0-32.6,16.2-32.6,38.7c0,22.3,12.2,38.7,32.6,38.7C1052.5,211.4,1064.7,203.6,1070.2,194.8z"/>
	</g>
	
		<line display="inline" fill="#F7F7F7" stroke="#DDDDDD" stroke-width="8" stroke-linecap="round" stroke-miterlimit="10" x1="663.3" y1="13.7" x2="663.3" y2="292.7"/>
	<g display="inline">
		
			<path fill="none" stroke="#AAAAAA" stroke-width="4.5739" stroke-linecap="round" stroke-linejoin="round" stroke-dasharray="15.5616,15.5616" d="
			M435.4,292.6h-230c-9.9,0-17.9-8-17.9-17.9V31.9c0-9.9,8-17.9,17.9-17.9h230c9.9,0,17.9,8,17.9,17.9v242.7
			C453.3,284.6,445.3,292.6,435.4,292.6z"/>
	</g>
	<g display="inline">
		<path fill="#333333" d="M391.6,255.4v-88.1H279.3v88.1h-23.9V63.2h23.9v82.7h112.3V63.2h23.9v192.1H391.6z"/>
	</g>
	
		<text transform="matrix(1 0 0 1 199.9918 84.0383)" display="inline" fill="#29ABCA" font-family="'ProximaNova-Regular'" font-size="80.5869px">3</text>
	
		<text transform="matrix(1 0 0 1 205.0934 277.1438)" display="inline" fill="#78C043" font-family="'ProximaNova-Regular'" font-size="80.5869px">1</text>
	<rect x="508.9" y="130.3" display="inline" fill="none" width="119.3" height="69.5"/>
	<text transform="matrix(1 0 0 1 510.7491 151.5182)" display="inline"><tspan x="0" y="0" fill="#333333" font-family="'ProximaNova-Semibold'" font-size="31.8662px">element </tspan><tspan x="18.1" y="24.8" fill="#333333" font-family="'ProximaNova-Semibold'" font-size="31.8662px">name</tspan></text>
	<rect x="14.5" y="3.7" display="inline" fill="none" width="119.3" height="69.5"/>
	<text transform="matrix(1 0 0 1 37.2977 24.9965)" display="inline"><tspan x="0" y="0" fill="#29ABCA" font-family="'ProximaNova-Semibold'" font-size="31.8662px">mass </tspan><tspan x="-18.1" y="24.8" fill="#29ABCA" font-family="'ProximaNova-Semibold'" font-size="31.8662px">number</tspan></text>
	<rect x="13.6" y="193.9" display="inline" fill="none" width="119.3" height="69.5"/>
	<text transform="matrix(1 0 0 1 25.5312 215.1547)" display="inline"><tspan x="0" y="0" fill="#78C043" font-family="'ProximaNova-Semibold'" font-size="31.8662px">atomic </tspan><tspan x="-7.2" y="24.8" fill="#78C043" font-family="'ProximaNova-Semibold'" font-size="31.8662px">number</tspan></text>
	<g display="inline">
		<g>
			
				<line fill="none" stroke="#29ABCA" stroke-width="4" stroke-linecap="round" stroke-linejoin="round" x1="136.3" y1="58.7" x2="168.3" y2="58.7"/>
			<g>
				<polygon fill="#29ABCA" points="166.3,67.6 181.9,58.6 166.3,49.6 				"/>
			</g>
		</g>
	</g>
	<g display="inline">
		<g>
			
				<line fill="none" stroke="#78C043" stroke-width="4" stroke-linecap="round" stroke-linejoin="round" x1="136.3" y1="254.7" x2="168.3" y2="254.7"/>
			<g>
				<polygon fill="#78C043" points="166.3,263.9 181.9,254.9 166.3,245.9 				"/>
			</g>
		</g>
	</g>
	<g display="inline">
		<g>
			
				<line fill="none" stroke="#333333" stroke-width="4" stroke-linecap="round" stroke-linejoin="round" x1="505.3" y1="158.7" x2="473.3" y2="158.7"/>
			<g>
				<polygon fill="#333333" points="475.3,150 459.7,159 475.3,168 				"/>
			</g>
		</g>
	</g>
	<circle display="inline" fill="#81CCB8" cx="47.4" cy="72.9" r="18.2"/>
	
		<text transform="matrix(1 0 0 1 38.8478 79.714)" display="inline" fill="#FDFDFD" font-family="'ProximaNova-Regular'" font-size="30.9386px">p</text>
	
		<text transform="matrix(1 0 0 1 71.2165 82.0255)" display="inline" fill="#81CCB8" font-family="'ProximaNova-Regular'" font-size="30.4186px">+</text>
	<circle display="inline" fill="#AAAAAA" cx="110.1" cy="72.9" r="18.2"/>
	
		<text transform="matrix(1 0 0 1 101.9245 80.5275)" display="inline" fill="#FDFDFD" font-family="'ProximaNova-Regular'" font-size="30.9386px">n</text>
	
		<text transform="matrix(1 0 0 1 5.3366 82.0255)" display="inline" fill="#81CCB8" font-family="'ProximaNova-Regular'" font-size="30.9386px">#</text>
	<circle display="inline" fill="#81CCB8" cx="75.4" cy="264.9" r="18.2"/>
	
		<text transform="matrix(1 0 0 1 66.8478 271.714)" display="inline" fill="#FDFDFD" font-family="'ProximaNova-Regular'" font-size="30.9386px">p</text>
	
		<text transform="matrix(1 0 0 1 33.3366 274.0255)" display="inline" fill="#81CCB8" font-family="'ProximaNova-Regular'" font-size="30.9386px">#</text>
</g>
<g id="Layer_10">
</g>
<g id="Layer_12">
	<g>
		<path fill="#AAAAAA" d="M435.4,294.9h-15.6c-1.3,0-2.3-1-2.3-2.3s1-2.3,2.3-2.3h15.6c1.3,0,2.3,1,2.3,2.3S436.7,294.9,435.4,294.9
			z M404.2,294.9h-15.6c-1.3,0-2.3-1-2.3-2.3s1-2.3,2.3-2.3h15.6c1.3,0,2.3,1,2.3,2.3S405.5,294.9,404.2,294.9z M373.1,294.9h-15.6
			c-1.3,0-2.3-1-2.3-2.3s1-2.3,2.3-2.3h15.6c1.3,0,2.3,1,2.3,2.3S374.4,294.9,373.1,294.9z M342,294.9h-15.6c-1.3,0-2.3-1-2.3-2.3
			s1-2.3,2.3-2.3H342c1.3,0,2.3,1,2.3,2.3S343.2,294.9,342,294.9z M310.9,294.9h-15.6c-1.3,0-2.3-1-2.3-2.3s1-2.3,2.3-2.3h15.6
			c1.3,0,2.3,1,2.3,2.3S312.1,294.9,310.9,294.9z M279.7,294.9h-15.6c-1.3,0-2.3-1-2.3-2.3s1-2.3,2.3-2.3h15.6c1.3,0,2.3,1,2.3,2.3
			S281,294.9,279.7,294.9z M248.6,294.9h-15.6c-1.3,0-2.3-1-2.3-2.3s1-2.3,2.3-2.3h15.6c1.3,0,2.3,1,2.3,2.3
			S249.9,294.9,248.6,294.9z M217.5,294.9h-12.2c-1.3,0-2.5-0.1-3.8-0.4c-1.2-0.2-2.1-1.4-1.8-2.7s1.4-2.1,2.7-1.8
			c1,0.2,1.9,0.3,2.9,0.3h12.2c1.3,0,2.3,1,2.3,2.3S218.8,294.9,217.5,294.9z M449.1,288.5c-0.5,0-1-0.2-1.5-0.5
			c-1-0.8-1.1-2.3-0.3-3.2c2.4-2.8,3.7-6.4,3.7-10.1v-3c0-1.3,1-2.3,2.3-2.3s2.3,1,2.3,2.3v3c0,4.8-1.7,9.4-4.7,13
			C450.4,288.2,449.7,288.5,449.1,288.5z M189.7,285.8c-0.8,0-1.6-0.4-2-1.2c-1.7-3-2.6-6.5-2.6-10v-6.3c0-1.3,1-2.3,2.3-2.3
			s2.3,1,2.3,2.3v6.3c0,2.7,0.7,5.4,2,7.7c0.6,1.1,0.2,2.5-0.9,3.1C190.5,285.7,190.1,285.8,189.7,285.8z M453.3,258.4
			c-1.3,0-2.3-1-2.3-2.3v-15.6c0-1.3,1-2.3,2.3-2.3s2.3,1,2.3,2.3v15.6C455.6,257.4,454.5,258.4,453.3,258.4z M187.4,255.1
			c-1.3,0-2.3-1-2.3-2.3v-15.6c0-1.3,1-2.3,2.3-2.3s2.3,1,2.3,2.3v15.6C189.7,254.1,188.6,255.1,187.4,255.1z M453.3,227.3
			c-1.3,0-2.3-1-2.3-2.3v-15.6c0-1.3,1-2.3,2.3-2.3s2.3,1,2.3,2.3V225C455.6,226.2,454.5,227.3,453.3,227.3z M187.4,224
			c-1.3,0-2.3-1-2.3-2.3v-15.6c0-1.3,1-2.3,2.3-2.3s2.3,1,2.3,2.3v15.6C189.7,222.9,188.6,224,187.4,224z M453.3,196.1
			c-1.3,0-2.3-1-2.3-2.3v-15.6c0-1.3,1-2.3,2.3-2.3s2.3,1,2.3,2.3v15.6C455.6,195.1,454.5,196.1,453.3,196.1z M187.4,192.8
			c-1.3,0-2.3-1-2.3-2.3V175c0-1.3,1-2.3,2.3-2.3s2.3,1,2.3,2.3v15.6C189.7,191.8,188.6,192.8,187.4,192.8z M453.3,165
			c-1.3,0-2.3-1-2.3-2.3v-15.6c0-1.3,1-2.3,2.3-2.3s2.3,1,2.3,2.3v15.6C455.6,164,454.5,165,453.3,165z M187.4,161.7
			c-1.3,0-2.3-1-2.3-2.3v-15.6c0-1.3,1-2.3,2.3-2.3s2.3,1,2.3,2.3v15.6C189.7,160.7,188.6,161.7,187.4,161.7z M453.3,133.9
			c-1.3,0-2.3-1-2.3-2.3V116c0-1.3,1-2.3,2.3-2.3s2.3,1,2.3,2.3v15.6C455.6,132.9,454.5,133.9,453.3,133.9z M187.4,130.6
			c-1.3,0-2.3-1-2.3-2.3v-15.6c0-1.3,1-2.3,2.3-2.3s2.3,1,2.3,2.3v15.6C189.7,129.6,188.6,130.6,187.4,130.6z M453.3,102.8
			c-1.3,0-2.3-1-2.3-2.3V84.9c0-1.3,1-2.3,2.3-2.3s2.3,1,2.3,2.3v15.6C455.6,101.7,454.5,102.8,453.3,102.8z M187.4,99.5
			c-1.3,0-2.3-1-2.3-2.3V81.6c0-1.3,1-2.3,2.3-2.3s2.3,1,2.3,2.3v15.6C189.7,98.4,188.6,99.5,187.4,99.5z M453.3,71.6
			c-1.3,0-2.3-1-2.3-2.3V53.8c0-1.3,1-2.3,2.3-2.3s2.3,1,2.3,2.3v15.6C455.6,70.6,454.5,71.6,453.3,71.6z M187.4,68.3
			c-1.3,0-2.3-1-2.3-2.3V50.5c0-1.3,1-2.3,2.3-2.3s2.3,1,2.3,2.3v15.6C189.7,67.3,188.6,68.3,187.4,68.3z M453.3,40.5
			c-1.3,0-2.3-1-2.3-2.3v-6.3c0-2.7-0.7-5.4-2-7.7c-0.6-1.1-0.2-2.5,0.9-3.1c1.1-0.6,2.5-0.2,3.1,0.9c1.7,3,2.6,6.5,2.6,10v6.3
			C455.6,39.5,454.5,40.5,453.3,40.5z M187.4,37.2c-1.3,0-2.3-1-2.3-2.3v-3c0-4.8,1.7-9.4,4.8-13c0.8-1,2.3-1.1,3.2-0.3
			c1,0.8,1.1,2.3,0.3,3.2c-2.4,2.8-3.7,6.4-3.7,10.1v3C189.7,36.2,188.6,37.2,187.4,37.2z M438.7,16.6c-0.1,0-0.3,0-0.4,0
			c-0.9-0.2-1.9-0.3-2.9-0.3h-12.2c-1.3,0-2.3-1-2.3-2.3s1-2.3,2.3-2.3h12.2c1.3,0,2.5,0.1,3.7,0.3c1.2,0.2,2.1,1.4,1.8,2.7
			C440.7,15.8,439.8,16.6,438.7,16.6z M407.6,16.3H392c-1.3,0-2.3-1-2.3-2.3s1-2.3,2.3-2.3h15.6c1.3,0,2.3,1,2.3,2.3
			S408.8,16.3,407.6,16.3z M376.4,16.3h-15.6c-1.3,0-2.3-1-2.3-2.3s1-2.3,2.3-2.3h15.6c1.3,0,2.3,1,2.3,2.3S377.7,16.3,376.4,16.3z
			 M345.3,16.3h-15.6c-1.3,0-2.3-1-2.3-2.3s1-2.3,2.3-2.3h15.6c1.3,0,2.3,1,2.3,2.3S346.6,16.3,345.3,16.3z M314.2,16.3h-15.6
			c-1.3,0-2.3-1-2.3-2.3s1-2.3,2.3-2.3h15.6c1.3,0,2.3,1,2.3,2.3S315.5,16.3,314.2,16.3z M283.1,16.3h-15.6c-1.3,0-2.3-1-2.3-2.3
			s1-2.3,2.3-2.3h15.6c1.3,0,2.3,1,2.3,2.3S284.3,16.3,283.1,16.3z M252,16.3h-15.6c-1.3,0-2.3-1-2.3-2.3s1-2.3,2.3-2.3H252
			c1.3,0,2.3,1,2.3,2.3S253.2,16.3,252,16.3z M220.8,16.3h-15.5c0,0-0.1,0-0.1,0c-1.2,0-2.2-1-2.2-2.3c0-1.3,1-2.3,2.3-2.3
			c0,0,0,0,0.1,0h15.5c1.3,0,2.3,1,2.3,2.3S222.1,16.3,220.8,16.3z"/>
	</g>
	<g>
		<g>
			<path fill="#333333" d="M391.6,255.4v-88.1H279.3v88.1h-23.9V63.2h23.9v82.7h112.3V63.2h23.9v192.1H391.6z"/>
		</g>
	</g>
	<g>
		<path fill="#29ABCA" d="M202.3,76.1l3.9-4.2c3.1,4.2,8.6,7.1,15,7.1c7.8,0,12.6-3.9,12.6-10.1c0-6.7-5.5-9.5-13.4-9.5
			c-2.3,0-4.8,0-5.6,0.1v-6.1c0.9,0.1,3.4,0.1,5.6,0.1c6.8,0,12.5-2.7,12.5-8.9c0-6-5.5-9.2-12-9.2c-5.9,0-10.2,2.3-14.2,6.5
			l-3.7-4.2c3.9-4.7,10.1-8.3,18.4-8.3c10.3,0,18.2,5.2,18.2,14.3c0,7.7-6.5,11.6-11.6,12.5c4.9,0.4,12.4,4.6,12.4,13.2
			c0,8.9-7.2,15.5-19,15.5C212.3,85,205.6,81,202.3,76.1z"/>
	</g>
	<g>
		<path fill="#78C043" d="M219.4,277.1v-44.9l-8.6,9.1l-4-4.1l13.5-13.9h5.9v53.7H219.4z"/>
	</g>
	<g>
		<path fill="#333333" d="M512,143.8c0-4.5,3.3-8.1,7.8-8.1c4.6,0,7.6,3.5,7.6,8.4v0.8h-11.9c0.3,2.3,2,4.2,4.9,4.2
			c1.5,0,3.3-0.6,4.4-1.7l1.5,2.2c-1.5,1.5-3.8,2.2-6.2,2.2C515.4,151.9,512,148.7,512,143.8z M519.8,138.5c-2.9,0-4.2,2.2-4.3,4.1
			h8.7C524,140.8,522.8,138.5,519.8,138.5z"/>
		<path fill="#333333" d="M530.7,151.5v-21.3h3.3v21.3H530.7z"/>
		<path fill="#333333" d="M537.4,143.8c0-4.5,3.2-8.1,7.8-8.1c4.6,0,7.6,3.5,7.6,8.4v0.8h-11.9c0.3,2.3,2,4.2,4.9,4.2
			c1.5,0,3.3-0.6,4.4-1.7l1.5,2.2c-1.5,1.5-3.8,2.2-6.2,2.2C540.8,151.9,537.4,148.7,537.4,143.8z M545.2,138.5
			c-2.9,0-4.2,2.2-4.3,4.1h8.7C549.5,140.8,548.2,138.5,545.2,138.5z"/>
		<path fill="#333333" d="M575,151.5v-10c0-1.7-0.7-2.8-2.5-2.8c-1.5,0-2.9,1.1-3.6,2v10.8h-3.3v-10c0-1.7-0.7-2.8-2.5-2.8
			c-1.5,0-2.8,1.1-3.5,2.1v10.7h-3.3v-15.4h3.3v2.1c0.6-1,2.7-2.5,5-2.5c2.3,0,3.7,1.1,4.2,2.8c0.9-1.4,2.9-2.8,5.2-2.8
			c2.8,0,4.4,1.5,4.4,4.7v11.1H575z"/>
		<path fill="#333333" d="M581.7,143.8c0-4.5,3.2-8.1,7.8-8.1c4.6,0,7.6,3.5,7.6,8.4v0.8h-11.9c0.3,2.3,2,4.2,4.9,4.2
			c1.5,0,3.3-0.6,4.4-1.7l1.5,2.2c-1.5,1.5-3.8,2.2-6.2,2.2C585.1,151.9,581.7,148.7,581.7,143.8z M589.5,138.5
			c-2.9,0-4.2,2.2-4.3,4.1h8.7C593.8,140.8,592.5,138.5,589.5,138.5z"/>
		<path fill="#333333" d="M610.8,151.5v-9.6c0-2.4-1.2-3.2-3.1-3.2c-1.7,0-3.2,1-4,2.1v10.7h-3.3v-15.4h3.3v2.1c1-1.2,3-2.5,5.4-2.5
			c3.3,0,5,1.8,5,4.9v10.8H610.8z"/>
		<path fill="#333333" d="M619.1,148v-8.9h-2.5v-2.9h2.5v-4.2h3.3v4.2h3.1v2.9h-3.1v8.1c0,1.1,0.5,1.8,1.5,1.8
			c0.6,0,1.2-0.3,1.5-0.5l0.8,2.5c-0.6,0.6-1.6,1-3.2,1C620.5,151.9,619.1,150.5,619.1,148z"/>
		<path fill="#333333" d="M541.4,176.3v-9.6c0-2.4-1.2-3.2-3.1-3.2c-1.7,0-3.2,1-4,2.1v10.7H531v-15.4h3.3v2.1c1-1.2,3-2.5,5.4-2.5
			c3.3,0,5,1.8,5,4.9v10.8H541.4z"/>
		<path fill="#333333" d="M558.5,176.3v-1.7c-1.1,1.3-2.9,2-5,2c-2.5,0-5.4-1.7-5.4-5.1c0-3.5,2.8-5,5.4-5c2.1,0,3.9,0.7,5,2v-2.3
			c0-1.8-1.5-2.9-3.6-2.9c-1.7,0-3.2,0.6-4.6,1.9L549,163c1.8-1.7,4-2.5,6.5-2.5c3.4,0,6.4,1.4,6.4,5.6v10.2H558.5z M558.5,172.8
			v-2.3c-0.8-1.1-2.2-1.6-3.7-1.6c-1.9,0-3.3,1.1-3.3,2.8c0,1.7,1.4,2.7,3.3,2.7C556.3,174.4,557.7,173.8,558.5,172.8z"/>
		<path fill="#333333" d="M585.1,176.3v-10c0-1.7-0.7-2.8-2.5-2.8c-1.5,0-2.9,1.1-3.6,2v10.8h-3.3v-10c0-1.7-0.7-2.8-2.5-2.8
			c-1.5,0-2.8,1.1-3.5,2.1v10.7h-3.3v-15.4h3.3v2.1c0.6-1,2.7-2.5,5-2.5c2.3,0,3.7,1.1,4.2,2.8c0.9-1.4,2.9-2.8,5.2-2.8
			c2.8,0,4.4,1.5,4.4,4.7v11.1H585.1z"/>
		<path fill="#333333" d="M591.8,168.6c0-4.5,3.2-8.1,7.8-8.1c4.6,0,7.6,3.5,7.6,8.4v0.8h-11.9c0.3,2.3,2,4.2,4.9,4.2
			c1.5,0,3.3-0.6,4.4-1.7l1.5,2.2c-1.5,1.5-3.8,2.2-6.2,2.2C595.2,176.7,591.8,173.5,591.8,168.6z M599.6,163.3
			c-2.9,0-4.2,2.2-4.3,4.1h8.7C603.9,165.5,602.6,163.3,599.6,163.3z"/>
	</g>
	<g>
		<path fill="#29ABCA" d="M58.3,25V15c0-1.7-0.7-2.8-2.5-2.8c-1.5,0-2.9,1.1-3.6,2V25h-3.3V15c0-1.7-0.7-2.8-2.5-2.8
			c-1.5,0-2.8,1.1-3.5,2.1V25h-3.3V9.6h3.3v2.1c0.6-1,2.7-2.5,5-2.5c2.3,0,3.7,1.1,4.2,2.8c0.9-1.4,2.9-2.8,5.2-2.8
			c2.8,0,4.4,1.5,4.4,4.7V25H58.3z"/>
		<path fill="#29ABCA" d="M75.4,25v-1.7c-1.1,1.3-2.9,2-5,2c-2.5,0-5.4-1.7-5.4-5.1c0-3.5,2.8-5,5.4-5c2.1,0,3.9,0.7,5,2V15
			c0-1.8-1.5-2.9-3.6-2.9c-1.7,0-3.2,0.6-4.6,1.9l-1.4-2.3c1.8-1.7,4-2.5,6.5-2.5c3.4,0,6.4,1.4,6.4,5.6V25H75.4z M75.4,21.5v-2.3
			c-0.8-1.1-2.2-1.6-3.7-1.6c-1.9,0-3.3,1.1-3.3,2.8c0,1.7,1.4,2.7,3.3,2.7C73.2,23.1,74.6,22.5,75.4,21.5z"/>
		<path fill="#29ABCA" d="M81.8,23l1.5-2.4c1.1,1.1,3.2,2.2,5.2,2.2c2,0,3-0.9,3-2.1c0-3-9.3-0.9-9.3-6.8c0-2.5,2.2-4.7,6.1-4.7
			c2.6,0,4.6,0.9,6,2.2l-1.4,2.4c-0.9-1.1-2.6-1.8-4.6-1.8c-1.8,0-2.9,0.8-2.9,1.9c0,2.7,9.3,0.7,9.3,6.8c0,2.7-2.3,4.8-6.4,4.8
			C85.7,25.4,83.3,24.5,81.8,23z"/>
		<path fill="#29ABCA" d="M96.8,23l1.5-2.4c1.1,1.1,3.2,2.2,5.2,2.2c2,0,3-0.9,3-2.1c0-3-9.3-0.9-9.3-6.8c0-2.5,2.2-4.7,6.1-4.7
			c2.6,0,4.6,0.9,6,2.2l-1.4,2.4c-0.9-1.1-2.6-1.8-4.6-1.8c-1.8,0-2.9,0.8-2.9,1.9c0,2.7,9.3,0.7,9.3,6.8c0,2.7-2.3,4.8-6.4,4.8
			C100.8,25.4,98.4,24.5,96.8,23z"/>
		<path fill="#29ABCA" d="M31.7,49.8v-9.6c0-2.4-1.2-3.2-3.1-3.2c-1.7,0-3.2,1-4,2.1v10.7h-3.3V34.4h3.3v2.1c1-1.2,3-2.5,5.4-2.5
			c3.3,0,5,1.8,5,4.9v10.8H31.7z"/>
		<path fill="#29ABCA" d="M49.8,49.8v-2c-1.1,1.2-3,2.4-5.4,2.4c-3.3,0-4.9-1.7-4.9-4.9V34.4h3.3v9.7c0,2.4,1.2,3.1,3.1,3.1
			c1.7,0,3.2-1,4-2V34.4h3.3v15.4H49.8z"/>
		<path fill="#29ABCA" d="M76.3,49.8v-10c0-1.7-0.7-2.8-2.5-2.8c-1.5,0-2.9,1.1-3.6,2v10.8h-3.3v-10c0-1.7-0.7-2.8-2.5-2.8
			c-1.5,0-2.8,1.1-3.5,2.1v10.7h-3.3V34.4h3.3v2.1c0.6-1,2.7-2.5,5-2.5c2.3,0,3.7,1.1,4.2,2.8c0.9-1.4,2.9-2.8,5.2-2.8
			c2.8,0,4.4,1.5,4.4,4.7v11.1H76.3z"/>
		<path fill="#29ABCA" d="M84,49.8V28.5h3.3v8c1.2-1.6,3-2.5,4.9-2.5c4,0,6.8,3.1,6.8,8.1c0,5.1-2.9,8.1-6.8,8.1c-2,0-3.8-1-4.9-2.5
			v2.1H84z M91.3,47.2c2.7,0,4.4-2.1,4.4-5.1c0-3-1.7-5.1-4.4-5.1c-1.6,0-3.2,1-4,2.1v6.1C88.1,46.3,89.7,47.2,91.3,47.2z"/>
		<path fill="#29ABCA" d="M101.6,42.1c0-4.5,3.2-8.1,7.8-8.1c4.6,0,7.6,3.5,7.6,8.4v0.8h-11.9c0.3,2.3,2,4.2,4.9,4.2
			c1.5,0,3.3-0.6,4.4-1.7l1.5,2.2c-1.5,1.5-3.8,2.2-6.2,2.2C105,50.2,101.6,46.9,101.6,42.1z M109.4,36.7c-2.9,0-4.2,2.2-4.3,4.1
			h8.7C113.6,39,112.4,36.7,109.4,36.7z"/>
		<path fill="#29ABCA" d="M120.3,49.8V34.4h3.3v2.3c1.1-1.5,3-2.6,5-2.6v3.3c-0.3-0.1-0.6-0.1-1.1-0.1c-1.4,0-3.3,1-4,2v10.5H120.3z
			"/>
	</g>
	<g>
		<path fill="#78C043" d="M37.1,215.2v-1.7c-1.1,1.3-2.9,2-5,2c-2.5,0-5.4-1.7-5.4-5.1c0-3.5,2.8-5,5.4-5c2.1,0,3.9,0.7,5,2v-2.3
			c0-1.8-1.5-2.9-3.6-2.9c-1.7,0-3.2,0.6-4.6,1.9l-1.4-2.3c1.8-1.7,4-2.5,6.5-2.5c3.4,0,6.4,1.4,6.4,5.6v10.2H37.1z M37.1,211.6
			v-2.3c-0.8-1.1-2.2-1.6-3.7-1.6c-1.9,0-3.3,1.1-3.3,2.8c0,1.7,1.4,2.7,3.3,2.7C34.9,213.2,36.3,212.7,37.1,211.6z"/>
		<path fill="#78C043" d="M45.4,211.6v-8.9h-2.5v-2.9h2.5v-4.2h3.3v4.2h3.1v2.9h-3.1v8.1c0,1.1,0.5,1.8,1.5,1.8
			c0.6,0,1.2-0.3,1.5-0.5l0.8,2.5c-0.6,0.6-1.6,1-3.2,1C46.8,215.5,45.4,214.1,45.4,211.6z"/>
		<path fill="#78C043" d="M54,207.4c0-4.4,3-8.1,7.9-8.1c4.9,0,7.9,3.7,7.9,8.1c0,4.4-3,8.1-7.9,8.1C57,215.5,54,211.9,54,207.4z
			 M66.3,207.4c0-2.7-1.6-5.1-4.5-5.1c-2.8,0-4.4,2.4-4.4,5.1c0,2.7,1.6,5.1,4.4,5.1C64.8,212.6,66.3,210.2,66.3,207.4z"/>
		<path fill="#78C043" d="M92.1,215.2v-10c0-1.7-0.7-2.8-2.5-2.8c-1.5,0-2.9,1.1-3.6,2v10.8h-3.3v-10c0-1.7-0.7-2.8-2.5-2.8
			c-1.5,0-2.8,1.1-3.5,2.1v10.7h-3.3v-15.4h3.3v2.1c0.6-1,2.7-2.5,5-2.5c2.3,0,3.7,1.1,4.2,2.8c0.9-1.4,2.9-2.8,5.2-2.8
			c2.8,0,4.4,1.5,4.4,4.7v11.1H92.1z"/>
		<path fill="#78C043" d="M99.3,195.8c0-1.1,1-2.1,2.1-2.1c1.1,0,2.1,0.9,2.1,2.1c0,1.1-0.9,2.1-2.1,2.1
			C100.3,197.9,99.3,197,99.3,195.8z M99.7,215.2v-15.4h3.3v15.4H99.7z"/>
		<path fill="#78C043" d="M106.5,207.4c0-4.7,3.3-8.1,8-8.1c3,0,4.8,1.3,5.9,2.7l-2.2,2c-0.9-1.2-2-1.8-3.5-1.8
			c-2.8,0-4.7,2.1-4.7,5.1c0,3,1.8,5.1,4.7,5.1c1.5,0,2.7-0.6,3.5-1.8l2.2,2c-1.1,1.5-2.9,2.7-5.9,2.7
			C109.8,215.5,106.5,212.1,106.5,207.4z"/>
		<path fill="#78C043" d="M30.9,239.9v-9.6c0-2.4-1.2-3.2-3.1-3.2c-1.7,0-3.2,1-4,2.1v10.7h-3.3v-15.4h3.3v2.1c1-1.2,3-2.5,5.4-2.5
			c3.3,0,5,1.8,5,4.9v10.8H30.9z"/>
		<path fill="#78C043" d="M48.9,239.9v-2c-1.1,1.2-3,2.4-5.4,2.4c-3.3,0-4.9-1.7-4.9-4.9v-10.9h3.3v9.7c0,2.4,1.2,3.1,3.1,3.1
			c1.7,0,3.2-1,4-2v-10.8h3.3v15.4H48.9z"/>
		<path fill="#78C043" d="M75.5,239.9v-10c0-1.7-0.7-2.8-2.5-2.8c-1.5,0-2.9,1.1-3.6,2v10.8H66v-10c0-1.7-0.7-2.8-2.5-2.8
			c-1.5,0-2.8,1.1-3.5,2.1v10.7h-3.3v-15.4H60v2.1c0.6-1,2.7-2.5,5-2.5c2.3,0,3.7,1.1,4.2,2.8c0.9-1.4,2.9-2.8,5.2-2.8
			c2.8,0,4.4,1.5,4.4,4.7v11.1H75.5z"/>
		<path fill="#78C043" d="M83.2,239.9v-21.3h3.3v8c1.2-1.6,3-2.5,4.9-2.5c4,0,6.8,3.1,6.8,8.1c0,5.1-2.9,8.1-6.8,8.1
			c-2,0-3.8-1-4.9-2.5v2.1H83.2z M90.5,237.4c2.7,0,4.4-2.1,4.4-5.1c0-3-1.7-5.1-4.4-5.1c-1.6,0-3.2,1-4,2.1v6.1
			C87.2,236.5,88.9,237.4,90.5,237.4z"/>
		<path fill="#78C043" d="M100.7,232.2c0-4.5,3.2-8.1,7.8-8.1c4.6,0,7.6,3.5,7.6,8.4v0.8h-11.9c0.3,2.3,2,4.2,4.9,4.2
			c1.5,0,3.3-0.6,4.4-1.7l1.5,2.2c-1.5,1.5-3.8,2.2-6.2,2.2C104.2,240.3,100.7,237.1,100.7,232.2z M108.5,226.9
			c-2.9,0-4.2,2.2-4.3,4.1h8.7C112.8,229.2,111.6,226.9,108.5,226.9z"/>
		<path fill="#78C043" d="M119.4,239.9v-15.4h3.3v2.3c1.1-1.5,3-2.6,5-2.6v3.3c-0.3-0.1-0.6-0.1-1.1-0.1c-1.4,0-3.3,1-4,2v10.5
			H119.4z"/>
	</g>
	<g>
		<g>
			<path fill="#29ABCA" d="M168.3,60.7h-32c-1.1,0-2-0.9-2-2s0.9-2,2-2h32c1.1,0,2,0.9,2,2S169.4,60.7,168.3,60.7z"/>
		</g>
		<g>
			<g>
				<polygon fill="#29ABCA" points="166.3,67.6 181.9,58.6 166.3,49.6 				"/>
			</g>
		</g>
	</g>
	<g>
		<g>
			<path fill="#78C043" d="M168.3,256.7h-32c-1.1,0-2-0.9-2-2s0.9-2,2-2h32c1.1,0,2,0.9,2,2S169.4,256.7,168.3,256.7z"/>
		</g>
		<g>
			<g>
				<polygon fill="#78C043" points="166.3,263.9 181.9,254.9 166.3,245.9 				"/>
			</g>
		</g>
	</g>
	<g>
		<g>
			<path fill="#333333" d="M505.3,160.7h-32c-1.1,0-2-0.9-2-2s0.9-2,2-2h32c1.1,0,2,0.9,2,2S506.4,160.7,505.3,160.7z"/>
		</g>
		<g>
			<g>
				<polygon fill="#333333" points="475.3,150 459.7,159 475.3,168 				"/>
			</g>
		</g>
	</g>
	<g>
		<circle fill="#81CCB8" cx="47.4" cy="72.9" r="18.2"/>
	</g>
	<g>
		<path fill="#FDFDFD" d="M43.5,77.5v8h-2.3V64.8h2.3V67c1.1-1.5,2.9-2.6,5-2.6c3.9,0,6.7,3,6.7,7.8c0,4.8-2.7,7.9-6.7,7.9
			C46.5,80.1,44.7,79.1,43.5,77.5z M52.7,72.2c0-3.3-1.8-5.8-4.8-5.8c-1.8,0-3.7,1.1-4.5,2.4v6.7c0.8,1.3,2.6,2.4,4.5,2.4
			C50.9,78,52.7,75.5,52.7,72.2z"/>
	</g>
	<g>
		<path fill="#81CCB8" d="M79.7,72.6V79h-1.7v-6.5h-5.8V71h5.8v-6.3h1.7V71h5.8v1.6H79.7z"/>
	</g>
	<g>
		<circle fill="#AAAAAA" cx="110.1" cy="72.9" r="18.2"/>
	</g>
	<g>
		<path fill="#FDFDFD" d="M114.3,80.5v-9.8c0-2.6-1.3-3.5-3.3-3.5c-1.8,0-3.6,1.1-4.4,2.3v10.9h-2.3V65.6h2.3v2.2
			c1.1-1.2,3.1-2.5,5.3-2.5c3.1,0,4.8,1.6,4.8,4.8v10.5H114.3z"/>
	</g>
	<g>
		<path fill="#81CCB8" d="M12.7,82l1.9-5.6h-3.4L9.3,82H7.4l1.9-5.6H6l0.5-1.6h3.3l2-6.2H8.6L9.1,67h3.4l1.9-5.6h1.9L14.4,67h3.4
			l1.9-5.6h1.9L19.6,67h3.3l-0.5,1.6h-3.4L17,74.8h3.4L20,76.4h-3.5L14.6,82H12.7z M17.2,68.6h-3.4l-2,6.2h3.4L17.2,68.6z"/>
	</g>
	<g>
		<circle fill="#81CCB8" cx="75.4" cy="264.9" r="18.2"/>
	</g>
	<g>
		<path fill="#FDFDFD" d="M71.5,269.5v8h-2.3v-20.6h2.3v2.2c1.1-1.5,2.9-2.6,5-2.6c3.9,0,6.7,3,6.7,7.8c0,4.8-2.7,7.9-6.7,7.9
			C74.5,272.1,72.7,271.1,71.5,269.5z M80.7,264.2c0-3.3-1.8-5.8-4.8-5.8c-1.8,0-3.7,1.1-4.5,2.4v6.7c0.8,1.3,2.6,2.4,4.5,2.4
			C78.9,270,80.7,267.5,80.7,264.2z"/>
	</g>
	<g>
		<path fill="#81CCB8" d="M40.7,274l1.9-5.6h-3.4l-1.9,5.6h-1.9l1.9-5.6H34l0.5-1.6h3.3l2-6.2h-3.3l0.5-1.6h3.4l1.9-5.6h1.9
			l-1.9,5.6h3.4l1.9-5.6h1.9l-1.9,5.6h3.3l-0.5,1.6h-3.4l-2.1,6.2h3.4l-0.5,1.6h-3.5l-1.9,5.6H40.7z M45.2,260.6h-3.4l-2,6.2h3.4
			L45.2,260.6z"/>
	</g>
</g>
</svg>
